<?xml version="1.0" standalone="no"?>
<!DOCTYPE svg PUBLIC "-//W3C//DTD SVG 20010904//EN"
 "http://www.w3.org/TR/2001/REC-SVG-20010904/DTD/svg10.dtd">
<svg version="1.0" xmlns="http://www.w3.org/2000/svg"
 width="512.000000pt" height="512.000000pt" viewBox="0 0 512.000000 512.000000"
 preserveAspectRatio="xMidYMid meet">
<metadata>
Created by potrace 1.14, written by Peter Selinger 2001-2017
</metadata>
<g transform="translate(0.000000,512.000000) scale(0.100000,-0.100000)"
fill="#000000" stroke="none">
<path d="M423 5100 c-39 -10 -89 -30 -110 -43 -21 -13 -42 -26 -48 -28 -57
-23 -165 -142 -207 -228 -11 -24 -29 -73 -39 -110 -17 -62 -18 -182 -18 -2126
-1 -2268 -5 -2121 61 -2252 17 -33 49 -82 73 -107 23 -25 39 -48 37 -51 -3 -3
2 -5 12 -5 9 0 14 -4 11 -10 -3 -5 1 -10 9 -10 9 0 16 -4 16 -10 0 -5 7 -10
15 -10 8 0 15 -4 15 -8 0 -10 92 -57 156 -79 46 -16 189 -18 2124 -20 1412 -1
2093 1 2130 8 64 12 150 47 150 61 0 5 4 7 9 4 12 -8 108 59 140 97 13 16 30
34 36 41 25 25 76 120 97 178 l23 63 0 2090 c0 1150 -3 2104 -6 2120 -17 75
-61 177 -92 210 -7 8 -30 36 -52 64 -22 27 -46 50 -52 51 -7 0 -13 4 -13 8 0
15 -143 85 -210 103 -61 17 -193 18 -2130 17 -1977 0 -2068 -1 -2137 -18z"/>
</g>
</svg>
